HIERARCHY
ROOT Hips
{
  OFFSET 373.837 88.1643 177.628
  CHANNELS 6 Xposition Yposition Zposition Zrotation Xrotation Yrotation
  JOINT RightUpLeg
  {
    OFFSET -9.27602 -1.55371 -0.0617006
    CHANNELS 3 Zrotation Xrotation Yrotation
    JOINT RightLeg
    {
      OFFSET 0.0569767 -41.8713 0.0644562
      CHANNELS 3 Zrotation Xrotation Yrotation
      JOINT RightFoot
      {
        OFFSET -0.463049 -43.0064 -0.0336586
        CHANNELS 3 Zrotation Xrotation Yrotation
        End Site
        {
          OFFSET 0 -7.69 17.5
        }
      }
    }
  }
  JOINT LeftUpLeg
  {
    OFFSET 9.29312 -1.63815 0.0236341
    CHANNELS 3 Zrotation Xrotation Yrotation
    JOINT LeftLeg
    {
      OFFSET 0.0670365 -41.8776 -0.0578197
      CHANNELS 3 Zrotation Xrotation Yrotation
      JOINT LeftFoot
      {
        OFFSET 0.591956 -40.8352 0.210268
        CHANNELS 3 Zrotation Xrotation Yrotation
        End Site
        {
          OFFSET 0 -7.69 17.5
        }
      }
    }
  }
  JOINT Spine
  {
    OFFSET 0.0229142 14.2949 0.0394214
    CHANNELS 3 Zrotation Xrotation Yrotation
    JOINT Spine1
    {
      OFFSET 0.0328969 9.71943 0.0194292
      CHANNELS 3 Zrotation Xrotation Yrotation
      JOINT Spine2
      {
        OFFSET 0.0292955 10.1244 -0.00440821
        CHANNELS 3 Zrotation Xrotation Yrotation
        JOINT Spine3
        {
          OFFSET 0.024556 9.71184 0.0101567
          CHANNELS 3 Zrotation Xrotation Yrotation
          JOINT Neck
          {
            OFFSET 0.152325 10.3757 0.0664015
            CHANNELS 3 Zrotation Xrotation Yrotation
            JOINT Head
            {
              OFFSET 0.134553 9.4858 0.0499874
              CHANNELS 3 Zrotation Xrotation Yrotation
              End Site
              {
                OFFSET 0 15.95 0
              }
            }
          }
          JOINT RightShoulder
          {
            OFFSET -3.19519 6.89024 -0.0330231
            CHANNELS 3 Zrotation Xrotation Yrotation
            JOINT RightArm
            {
              OFFSET -12.6524 0.0927817 0.0603028
              CHANNELS 3 Zrotation Xrotation Yrotation
              JOINT RightForeArm
              {
                OFFSET -26.4983 -0.141459 0.202928
                CHANNELS 3 Zrotation Xrotation Yrotation
                JOINT RightHand
                {
                  OFFSET -25.9883 -0.0240172 0.0141731
                  CHANNELS 3 Zrotation Xrotation Yrotation
                  JOINT RightHandThumb1
                  {
                    OFFSET -2.48905 0.190105 3.12053
                    CHANNELS 3 Zrotation Xrotation Yrotation
                    JOINT RightHandThumb2
                    {
                      OFFSET -3.68274 0 0
                      CHANNELS 3 Zrotation Xrotation Yrotation
                      JOINT RightHandThumb3
                      {
                        OFFSET -2.55832 0 0
                        CHANNELS 3 Zrotation Xrotation Yrotation
                        End Site
                        {
                          OFFSET -2.194 0 0
                        }
                      }
                    }
                  }
                  JOINT RightInHandIndex
                  {
                    OFFSET -3.22368 0.508421 1.97842
                    CHANNELS 3 Zrotation Xrotation Yrotation
                    JOINT RightHandIndex1
                    {
                      OFFSET -5.21684 -0.091368 0.999158
                      CHANNELS 3 Zrotation Xrotation Yrotation
                      JOINT RightHandIndex2
                      {
                        OFFSET -3.61937 0 0
                        CHANNELS 3 Zrotation Xrotation Yrotation
                        JOINT RightHandIndex3
                        {
                          OFFSET -2.0521 0 0
                          CHANNELS 3 Zrotation Xrotation Yrotation
                          End Site
                          {
                            OFFSET -1.805 0 0
                          }
                        }
                      }
                    }
                  }
                  JOINT RightInHandMiddle
                  {
                    OFFSET -3.38211 0.517263 0.756737
                    CHANNELS 3 Zrotation Xrotation Yrotation
                    JOINT RightHandMiddle1
                    {
                      OFFSET -5.17411 -0.084 0.313895
                      CHANNELS 3 Zrotation Xrotation Yrotation
                      JOINT RightHandMiddle2
                      {
                        OFFSET -3.94947 0 0
                        CHANNELS 3 Zrotation Xrotation Yrotation
                        JOINT RightHandMiddle3
                        {
                          OFFSET -2.47579 0 0
                          CHANNELS 3 Zrotation Xrotation Yrotation
                          End Site
                          {
                            OFFSET -1.975 0 0
                          }
                        }
                      }
                    }
                  }
                  JOINT RightInHandRing
                  {
                    OFFSET -3.36516 0.537895 -0.128947
                    CHANNELS 3 Zrotation Xrotation Yrotation
                    JOINT RightHandRing1
                    {
                      OFFSET -4.63474 -0.022105 -0.478947
                      CHANNELS 3 Zrotation Xrotation Yrotation
                      JOINT RightHandRing2
                      {
                        OFFSET -3.44238 0 0
                        CHANNELS 3 Zrotation Xrotation Yrotation
                        JOINT RightHandRing3
                        {
                          OFFSET -2.3881 0 0
                          CHANNELS 3 Zrotation Xrotation Yrotation
                          End Site
                          {
                            OFFSET -1.857 0 0
                          }
                        }
                      }
                    }
                  }
                  JOINT RightInHandPinky
                  {
                    OFFSET -3.16105 0.469368 -1.20179
                    CHANNELS 3 Zrotation Xrotation Yrotation
                    JOINT RightHandPinky1
                    {
                      OFFSET -4.14105 -0.022105 -1.09053
                      CHANNELS 3 Zrotation Xrotation Yrotation
                      JOINT RightHandPinky2
                      {
                        OFFSET -2.75653 0 0
                        CHANNELS 3 Zrotation Xrotation Yrotation
                        JOINT RightHandPinky3
                        {
                          OFFSET -1.74189 0 0
                          CHANNELS 3 Zrotation Xrotation Yrotation
                          End Site
                          {
                            OFFSET -1.645 0 0
                          }
                        }
                      }
                    }
                  }
                }
              }
            }
          }
          JOINT LeftShoulder
          {
            OFFSET 3.28609 6.87948 -0.0751467
            CHANNELS 3 Zrotation Xrotation Yrotation
            JOINT LeftArm
            {
              OFFSET 12.831 -0.0663252 -0.1321
              CHANNELS 3 Zrotation Xrotation Yrotation
              JOINT LeftForeArm
              {
                OFFSET 26.5106 -0.082189 -0.0903645
                CHANNELS 3 Zrotation Xrotation Yrotation
                JOINT LeftHand
                {
                  OFFSET 25.9965 -0.0307163 -0.0535747
                  CHANNELS 3 Zrotation Xrotation Yrotation
                  JOINT LeftHandThumb1
                  {
                    OFFSET 2.48905 0.190105 3.12053
                    CHANNELS 3 Zrotation Xrotation Yrotation
                    JOINT LeftHandThumb2
                    {
                      OFFSET 3.68274 0 0
                      CHANNELS 3 Zrotation Xrotation Yrotation
                      JOINT LeftHandThumb3
                      {
                        OFFSET 2.55832 0 0
                        CHANNELS 3 Zrotation Xrotation Yrotation
                        End Site
                        {
                          OFFSET 2.194 0 0
                        }
                      }
                    }
                  }
                  JOINT LeftInHandIndex
                  {
                    OFFSET 3.22368 0.508421 1.97842
                    CHANNELS 3 Zrotation Xrotation Yrotation
                    JOINT LeftHandIndex1
                    {
                      OFFSET 5.21684 -0.091368 0.999158
                      CHANNELS 3 Zrotation Xrotation Yrotation
                      JOINT LeftHandIndex2
                      {
                        OFFSET 3.61937 0 0
                        CHANNELS 3 Zrotation Xrotation Yrotation
                        JOINT LeftHandIndex3
                        {
                          OFFSET 2.0521 0 0
                          CHANNELS 3 Zrotation Xrotation Yrotation
                          End Site
                          {
                            OFFSET 1.805 0 0
                          }
                        }
                      }
                    }
                  }
                  JOINT LeftInHandMiddle
                  {
                    OFFSET 3.38211 0.517263 0.756737
                    CHANNELS 3 Zrotation Xrotation Yrotation
                    JOINT LeftHandMiddle1
                    {
                      OFFSET 5.17411 -0.084 0.313895
                      CHANNELS 3 Zrotation Xrotation Yrotation
                      JOINT LeftHandMiddle2
                      {
                        OFFSET 3.94947 0 0
                        CHANNELS 3 Zrotation Xrotation Yrotation
                        JOINT LeftHandMiddle3
                        {
                          OFFSET 2.47579 0 0
                          CHANNELS 3 Zrotation Xrotation Yrotation
                          End Site
                          {
                            OFFSET 1.975 0 0
                          }
                        }
                      }
                    }
                  }
                  JOINT LeftInHandRing
                  {
                    OFFSET 3.36516 0.537895 -0.128947
                    CHANNELS 3 Zrotation Xrotation Yrotation
                    JOINT LeftHandRing1
                    {
                      OFFSET 4.63474 -0.022105 -0.478947
                      CHANNELS 3 Zrotation Xrotation Yrotation
                      JOINT LeftHandRing2
                      {
                        OFFSET 3.44238 0 0
                        CHANNELS 3 Zrotation Xrotation Yrotation
                        JOINT LeftHandRing3
                        {
                          OFFSET 2.3881 0 0
                          CHANNELS 3 Zrotation Xrotation Yrotation
                          End Site
                          {
                            OFFSET 1.857 0 0
                          }
                        }
                      }
                    }
                  }
                  JOINT LeftInHandPinky
                  {
                    OFFSET 3.16105 0.469368 -1.20179
                    CHANNELS 3 Zrotation Xrotation Yrotation
                    JOINT LeftHandPinky1
                    {
                      OFFSET 4.14105 -0.022105 -1.09053
                      CHANNELS 3 Zrotation Xrotation Yrotation
                      JOINT LeftHandPinky2
                      {
                        OFFSET 2.75653 0 0
                        CHANNELS 3 Zrotation Xrotation Yrotation
                        JOINT LeftHandPinky3
                        {
                          OFFSET 1.74189 0 0
                          CHANNELS 3 Zrotation Xrotation Yrotation
                          End Site
                          {
                            OFFSET 1.645 0 0
                          }
                        }
                      }
                    }
                  }
                }
              }
            }
          }
        }
      }
    }
  }
}
MOTION
Frames: 2
Frame Time: 0.00833333
1.415257580798368053e+03 8.845075820073964223e+01 1.876022824400082811e+02 1.719088395610313924e+01 4.256868410523343194e+00 -8.342643956736083055e+01 1.344934651198736475e+01 -2.910645515778249148e+01 7.662055315812898115e+00 -4.546763809010469615e+00 1.355774328535751394e+01 -6.226640919630577642e+00 9.114163070807968836e+00 1.882765472399026052e+01 3.705049282244241482e+01 1.434971735846959007e+01 -2.404987882329003313e+01 4.436582164270269857e+00 -6.052865545288018012e+00 3.535182182513475624e+01 6.769358521263292516e+00 -1.928742816186217901e+00 -1.481621108442440260e+01 -9.512368299885558542e+00 -1.379375667647046999e+00 1.099600073994936977e+00 5.340862641154782153e+00 -3.395789214715811966e-01 6.001094729882164303e-02 1.369386611743098392e+00 -5.452031190371198210e-01 -2.519615283868437139e-02 2.079952760478485096e+00 -5.236701949975576253e-01 -4.986667237989607093e-01 7.945437192946607219e-01 5.764141475005781778e-01 -5.100044468947562137e+00 9.794173050700816674e+00 -9.109664548824714103e+00 3.433041653241501123e+00 9.950341980288200716e+00 -4.770558321081234787e+00 -5.269503510838770666e+00 1.684028556560526368e+01 4.922412677026719763e+01 -3.211040223557152729e+01 3.897433364513918264e+01 2.950317628635203704e+01 -2.240612882555129914e+01 9.019085224335124451e+01 4.129275981129271855e+00 -2.578793552145377532e+01 2.296642453241045878e+00 2.818400000000000105e+01 1.072940000000000005e+01 1.915919999999999845e+01 -4.457336376269221808e-15 1.171149663943003469e-15 -1.000000000000000000e+01 6.406186881105974156e-15 -9.054826635415971354e-16 -1.000000000000000000e+01 1.047919094862327247e-15 -6.022633770245379838e-15 -5.581553646852624337e-15 1.998179999999999978e+01 8.718970000000000331e-01 2.396399999999999864e+00 2.400000000000000000e+01 -3.486498637846114302e-15 5.093434251441698958e-15 2.000000000000000000e+01 6.454746962048205526e-15 4.196623117876054504e-14 1.047919094862327247e-15 -6.022633770245379838e-15 -5.581553646852624337e-15 2.000000000000000000e+01 -5.139249221947713531e-15 -5.106375167659501799e-15 2.400000000000000000e+01 -9.475633090521642108e-15 3.144234254596130667e-15 2.000000000000000000e+01 6.923212775265073272e-15 3.062220901804798859e-14 1.047919094862327247e-15 -6.022633770245379838e-15 -5.581553646852624337e-15 1.997479999999999833e+01 -1.025649999999999951e+00 -2.819380000000000219e+00 2.400000000000000000e+01 -1.197781998529028962e-15 -2.053000366999875561e-15 2.000000000000000000e+01 8.805823778123924770e-15 3.434262949014902547e-14 1.047919094862327247e-15 -6.022633770245379838e-15 -5.581553646852624337e-15 1.978150000000000119e+01 -3.009479999999999933e+00 -8.305149999999999366e+00 2.400000000000000000e+01 -4.712495223378328410e-15 1.804064648396141969e-15 2.000000000000000000e+01 -4.160604628190976043e-15 1.159742495447533149e-14 6.179053617280155564e+00 -1.783417955153007739e+01 -4.336161439879654722e+01 -3.783732781685625923e+01 1.158414312143397140e+01 -8.169278553133958098e+01 3.714449518108717996e+01 -1.558278944808116151e+01 -2.715969393650649977e+01 -2.191297241804511486e+01 -1.396873285490165628e+01 -7.871852279433014132e+00 -2.818400000000000105e+01 1.072940000000000005e+01 -1.915919999999999845e+01 4.171621928701585614e-15 -1.082194499686553335e-15 1.000000000000000000e+01 2.387914892053043333e-15 -7.649118259554880554e-16 1.000000000000000000e+01 5.047606852883827144e-16 -7.429479585201307104e-16 -6.803988051451432973e-16 -1.998179999999999978e+01 8.718970000000000331e-01 -2.396399999999999864e+00 -2.400000000000000000e+01 -3.693487722359905409e-15 1.603449799408935563e-14 -2.000000000000000000e+01 -1.487532237847395337e-15 4.508437962053274697e-15 5.047606852883827144e-16 -7.429479585201307104e-16 -6.803988051451432973e-16 -2.000000000000000000e+01 1.213869684767363143e-15 5.406041778237519329e-15 -2.400000000000000000e+01 -7.709221492590905564e-15 -2.651806917656689228e-15 -2.000000000000000000e+01 1.951245402941256392e-15 -4.938177013112588607e-15 5.047606852883827144e-16 -7.429479585201307104e-16 -6.803988051451432973e-16 -1.997479999999999833e+01 -1.025649999999999951e+00 2.819380000000000219e+00 -2.400000000000000000e+01 1.803476879063970428e-15 1.111728336776354073e-14 -2.000000000000000000e+01 -4.191198317359215794e-15 3.530094360832184102e-15 5.047606852883827144e-16 -7.429479585201307104e-16 -6.803988051451432973e-16 -1.978150000000000119e+01 -3.009479999999999933e+00 8.305149999999999366e+00 -2.400000000000000000e+01 -1.270548656966077790e-15 1.142715931907350359e-14 -2.000000000000000000e+01 -7.548100516448825518e-15 4.328769578788549076e-15
1.415236804606281794e+03 8.845660493888865972e+01 1.876606192425070390e+02 1.713188595546235504e+01 4.265343413386846194e+00 -8.316672368323121134e+01 1.341141358463969269e+01 -2.895466995555031886e+01 7.633859838513551210e+00 -4.545330060543284034e+00 1.353523556359637503e+01 -6.250851273928198282e+00 9.118441278338364597e+00 1.884129783196431873e+01 3.697866035883892266e+01 1.423043262325660052e+01 -2.401764240021280372e+01 4.318028198136623530e+00 -5.987978674429434989e+00 3.532869754384351779e+01 6.699607500375670099e+00 -1.933691908445158703e+00 -1.479587393328844414e+01 -9.634123074954789701e+00 -1.357691579794327863e+00 1.085249253695942828e+00 5.382032300937588332e+00 -3.346673141555578379e-01 5.518111725551841373e-02 1.380583959587235121e+00 -5.369132712569988364e-01 -3.364136233502545981e-02 2.097295238592984390e+00 -5.197509120241653457e-01 -4.972443019583615564e-01 7.857947686996471504e-01 5.831819112359909463e-01 -5.099988916015484541e+00 9.701242093874380856e+00 -9.039437481665082430e+00 3.468521106848356794e+00 9.837754923520961370e+00 -4.788306141264323301e+00 -5.297342717507556031e+00 1.687905083813957674e+01 4.917065681028054769e+01 -3.201592454329302484e+01 3.906879181153698966e+01 2.933528653004754716e+01 -2.229236149406945700e+01 9.016367722682797137e+01 4.126668679532143003e+00 -2.578326900741803129e+01 2.384128633150628396e+00 2.818400000000000105e+01 1.072940000000000005e+01 1.915919999999999845e+01 -4.458091517171804629e-15 1.174850608692293483e-15 -1.000000000000000000e+01 6.414383703475544481e-15 -9.060779470882614440e-16 -1.000000000000000000e+01 1.057932901866217795e-15 -6.021204687630684715e-15 -5.578066654003055090e-15 1.998179999999999978e+01 8.718970000000000331e-01 2.396399999999999864e+00 2.400000000000000000e+01 -3.485506178077089232e-15 5.106444936974391152e-15 2.000000000000000000e+01 6.457646544710141891e-15 4.204305918812215429e-14 1.057932901866217795e-15 -6.021204687630684715e-15 -5.578066654003055090e-15 2.000000000000000000e+01 -5.141130075973500079e-15 -5.131896056049138015e-15 2.400000000000000000e+01 -9.497766086844471600e-15 3.169313108384788021e-15 2.000000000000000000e+01 6.933488631310787089e-15 3.070733219540472426e-14 1.057932901866217795e-15 -6.021204687630684715e-15 -5.578066654003055090e-15 1.997479999999999833e+01 -1.025649999999999951e+00 -2.819380000000000219e+00 2.400000000000000000e+01 -1.201549209651133477e-15 -2.035862993617378249e-15 2.000000000000000000e+01 8.802380692778208698e-15 3.439052015996980885e-14 1.057932901866217795e-15 -6.021204687630684715e-15 -5.578066654003055090e-15 1.978150000000000119e+01 -3.009479999999999933e+00 -8.305149999999999366e+00 2.400000000000000000e+01 -4.714364677779972945e-15 1.825487308377557763e-15 2.000000000000000000e+01 -4.162853115988866747e-15 1.161598468828833810e-14 6.154541075343459511e+00 -1.781585926816659793e+01 -4.330661819709406757e+01 -3.794001008065963276e+01 1.149785497979786086e+01 -8.162312121844857415e+01 3.709981012576071180e+01 -1.564172992141292440e+01 -2.740937556497045691e+01 -2.191029831458315158e+01 -1.393561578075672180e+01 -7.941487562030276948e+00 -2.818400000000000105e+01 1.072940000000000005e+01 -1.915919999999999845e+01 4.168420901650782000e-15 -1.077462347632943899e-15 1.000000000000000000e+01 2.384151627325531973e-15 -7.641845448918717182e-16 1.000000000000000000e+01 5.061531184909100557e-16 -7.439493675626884144e-16 -6.857053910091531681e-16 -1.998179999999999978e+01 8.718970000000000331e-01 -2.396399999999999864e+00 -2.400000000000000000e+01 -3.699621271778244456e-15 1.603162179186940041e-14 -2.000000000000000000e+01 -1.473084851900523477e-15 4.479789886379051322e-15 5.061531184909100557e-16 -7.439493675626884144e-16 -6.857053910091531681e-16 -2.000000000000000000e+01 1.214024182902514098e-15 5.408349201916010373e-15 -2.400000000000000000e+01 -7.716296524628045190e-15 -2.661789061576723882e-15 -2.000000000000000000e+01 1.957581764415862135e-15 -4.962907488005562096e-15 5.061531184909100557e-16 -7.439493675626884144e-16 -6.857053910091531681e-16 -1.997479999999999833e+01 -1.025649999999999951e+00 2.819380000000000219e+00 -2.400000000000000000e+01 1.798579967637704089e-15 1.110198330823178958e-14 -2.000000000000000000e+01 -4.188381625643838427e-15 3.501551422034502263e-15 5.061531184909100557e-16 -7.439493675626884144e-16 -6.857053910091531681e-16 -1.978150000000000119e+01 -3.009479999999999933e+00 8.305149999999999366e+00 -2.400000000000000000e+01 -1.273331055641966458e-15 1.141278717385037676e-14 -2.000000000000000000e+01 -7.555738334692387920e-15 4.297110250461554706e-15
